<?xml version="1.0" encoding="UTF-8"?>
<svg id="Layer_1" data-name="Layer 1" xmlns="http://www.w3.org/2000/svg" viewBox="0 0 1378 247">
  <defs>
    <style>
      .cls-1 {
        fill: #010101;
      }
    </style>
  </defs>
  <path class="cls-1" d="M224.3,174.4c-3.6,4.1-7.7,7.4-12.2,9.7s-9.3,3.6-14.2,3.7h-1.4c-5.7-.1-10.8-1.5-15.3-4s-8.2-6.1-11.1-10.8c-3.9,4.9-7.8,8.6-11.9,11-4.1,2.4-8.7,3.7-13.9,3.8h-.9c-3.6-.3-6.5-.8-8.8-1.6-1.1,11.7-4.7,22.2-11,31.4s-14.5,16.4-24.6,21.6c-10.1,5.2-21.4,7.8-33.8,7.8s-23.5-2.3-33.4-6.9c-9.9-4.6-17.6-11.5-23.3-20.6C2.8,210.4,0,199.3,0,186.2c0-3.2,.1-5.6,.2-7.2,1.1-12.8,5.8-28.3,14.2-46.5l23,10.4c-3.7,8.9-6.4,16-8,21.2s-2.4,10.9-2.4,17c0,18.9,12.7,28.4,38.2,28.4,8.5,0,16.1-1.4,22.9-4.1,6.7-2.7,12-6.4,15.9-11.1,3.9-4.7,5.8-9.7,5.8-15.2,0-6.1-4.7-21.7-14-46.7l25.6-14.2c2.3,5.5,4.1,10.4,5.4,14.8,1.7,4.7,3.3,8.2,4.6,10.5s3,4.1,5.1,5.2c2.1,1.1,5,1.7,8.7,1.7,5.9-.1,10.2-3.1,13-9,2.5-5.3,4.7-12.5,6.6-21.6l24.6,1c-.4,2.3-.8,5.3-1.3,9.1s-.7,6.8-.7,8.9c0,3.5,.8,6.3,2.5,8.4,1.7,2.1,4.2,3.2,7.5,3.2,2.8,0,5.5-.5,8.2-1.5s4.7-2.2,6.2-3.7c-1.7-8.9-3.2-16.8-4.4-23.8l24.6-6.8c1.5,8.4,2.6,14.6,3.5,18.7,.9,4.1,1.8,7.4,2.7,9.9,.8,2.4,2.2,4.2,4.2,5.4s4.9,1.8,8.6,1.8h1.2l2,18.8-2,18.8h-1.2c-10.8-.3-19.6-4.7-26.7-13.6Z"/>
  <path class="cls-1" d="M250.1,150.2h1c10.5-.1,17.8-1.3,22-3.4,4.1-2.1,6.3-5.7,6.6-10.8-.1-6-.9-12.5-2.2-19.6l24.8-4.6c1.9,10.9,2.8,22,2.8,33.4,.8,1.3,2.3,2.5,4.4,3.5s4.9,1.5,8.4,1.5h.8l2,18.8-2,18.8h-.8c-5.2,0-10.1-1.1-14.7-3.3s-8.7-5.2-12.3-8.9c-8.9,8.1-22.2,12.2-39.8,12.2h-1v-37.6h0Zm26.7-93.5l21.2,21.2-21.2,21.4-21.4-21.4,21.4-21.2Z"/>
  <path class="cls-1" d="M412.5,183.8c-4.5-2.5-8.3-6.1-11.2-10.8-3.9,4.9-7.8,8.6-11.9,11s-8.6,3.7-13.7,3.8h-1.4c-5.3,0-10.2-1.3-14.7-3.9-4.5-2.6-7.8-6.1-10.1-10.5-4.4,4.7-9.3,8.2-14.7,10.7-5.4,2.5-11,3.7-16.9,3.7h-.5l-2-18.8,2-18.8h1c3.6,0,7.3-.7,11-2.2s6.5-3.2,8.2-5.2c4.5-4.8,8.1-12.2,10.6-22.4l24.6,2.6c-.3,.9-1,3.7-2.2,8.4s-1.8,8.4-1.8,11.2c0,5.1,2.1,7.6,6.4,7.6h.6c6.3,0,10.8-3,13.6-9,2.5-5.3,4.7-12.5,6.6-21.6l24.6,1c-.4,2.3-.8,5.3-1.3,9.1s-.7,6.8-.7,8.9c0,3.5,.8,6.3,2.5,8.4,1.7,2.1,4.2,3.2,7.5,3.2h.2c3.1,0,5.7-.9,7.8-2.8,2.1-1.9,3.2-4,3.2-6.4,0-4.5-3.7-15.7-11-33.6l24.6-13.6c2.5,5.2,5.2,12.8,8.1,22.8s4.3,18.7,4.3,26.2c0,8-1.5,15.4-4.6,22.3-3.1,6.9-7.4,12.4-13,16.5s-11.9,6.2-19,6.2h-1c-6-.2-11.2-1.5-15.7-4Z"/>
  <path class="cls-1" d="M538.9,153.6c-1.6,5.2-2.4,10.9-2.4,17,0,18.9,12.7,28.4,38.2,28.4,8.5,0,16.1-1.4,22.9-4.1,6.7-2.7,12-6.4,15.9-11.1,3.9-4.7,5.8-9.7,5.8-15.2,0-6-4.7-21.6-14-46.7l25.6-14.2c4.4,10.5,7.8,21.1,10.1,31.7,2.3,10.6,3.5,20.3,3.5,29.3,0,12.8-3,24.4-9.1,34.8-6.1,10.4-14.4,18.5-25,24.4s-22.5,8.8-35.7,8.8c-12.4,0-23.5-2.3-33.4-6.9-9.9-4.6-17.6-11.5-23.3-20.6s-8.5-20.2-8.5-33.3c0-3.2,.1-5.6,.2-7.2,1.1-12.8,5.8-28.3,14.2-46.5l23,10.4c-3.7,8.7-6.4,15.8-8,21Zm40-68.1l21.2,21.2-21.2,21.4-21.4-21.4,21.4-21.2Z"/>
  <path class="cls-1" d="M663.2,144.2c0-18.2-.7-37.6-2.1-57.9-1.4-20.4-3-35.5-4.7-45.3l31-7c1.3,9.2,2.5,23.1,3.6,41.8,1.1,18.7,1.6,37.2,1.6,55.4,0,25.2-1.1,44.6-3.2,58.3l-28.6-3c1.6-9.9,2.4-24.1,2.4-42.3Z"/>
  <path class="cls-1" d="M754.6,186c-1.6,12.4-7.5,23.7-17.8,34s-23.8,19.2-40.5,26.8l-15.8-31.4c8.9-4,17.1-8.4,24.7-13.1,7.5-4.7,13.5-9.2,18-13.3s6.7-7.4,6.7-9.8c0-5.3-4.1-21.2-12.4-47.5l27-10.8c2,5.2,3.5,10.2,4.6,15,1.7,5.2,3.8,8.9,6.3,11.1,2.5,2.2,5.8,3.3,10.1,3.3h2.2l2,18.8-2,18.8h-2.3c-4-.2-7.6-.8-10.8-1.9Z"/>
  <path class="cls-1" d="M767.6,203.5l17.4,17.4,11.6-11.6,5.8-5.8,18.8,18.8-18.8,18.6-17.4-17.4-11.6,11.6-5.8,5.8-18.6-18.6,18.6-18.8Zm-2.2-53.3h10.8c12.4,0,21.2-1,26.5-3s7.9-4.8,7.9-8.4c0-3.3-3.7-13.8-11-31.4l25.4-14c2.7,5.6,5.4,13.1,8.1,22.5,2.7,9.4,4.1,17.8,4.1,25.3,0,14.9-4.7,26.4-14,34.5s-23,12.1-40.9,12.1h-16.9v-37.6Z"/>
  <path class="cls-1" d="M858.3,144.2c0-18.2-.7-37.6-2.1-57.9-1.4-20.4-3-35.5-4.7-45.3l31-7c1.3,9.2,2.5,23.1,3.6,41.8,1.1,18.7,1.6,37.2,1.6,55.4,0,25.2-1.1,44.6-3.2,58.3l-28.6-3c1.6-9.9,2.4-24.1,2.4-42.3Z"/>
  <path class="cls-1" d="M969.6,185.1c-11.6-3.5-20.6-8.6-27-15.2-6.4-6.6-10-14.4-10.8-23.5-.1-1.1-.2-2.7-.2-4.8,0-6,.8-12.5,2.4-19.5,1.6-7,3.7-13.2,6.2-18.7l23,10.8c-.3,.9-1.2,4.3-2.7,10.2s-2.2,10.5-2.1,14c.5,2.3,3,4.5,7.3,6.8s10.5,4.1,18.4,5.6,17.1,2.2,27.7,2.2c17.8,0,31.3-.9,40.3-2.8,9.1-1.9,15.8-5,20.3-9.5s8.6-11.2,12.3-20.3l24.6,2.6c-2.7,7.6-4,13.5-4,17.8,0,3.5,.9,5.9,2.7,7.3s4.4,2.1,7.9,2.1l2,18.8-2,18.8c-7.1,0-13.5-2.1-19.3-6.3s-9.4-9.5-10.7-15.9c-8.7,9.6-18.8,16.1-30.5,19.6s-26.5,5.2-44.6,5.2c-15.9-.1-29.6-1.8-41.2-5.3Zm32.7-106.4l17.4,17.4,11.6-11.6,5.8-5.8,18.6,18.6-18.6,18.8-17.4-17.4-11.6,11.6-5.8,5.8-18.8-18.8,18.8-18.6Z"/>
  <path class="cls-1" d="M1113.8,150.2h10.6c16.6,0,25-3.3,25-9.8,0-2-1.4-7-4.3-15s-5.1-14-6.7-18l25.6-14c2.5,5.6,5.2,13.4,8,23.3,2.8,9.9,4.2,18.6,4.2,26.1,0,14.7-4.5,25.8-13.4,33.5s-21.7,11.5-38.4,11.5h-10.6v-37.6h0Zm30-104.1l21.2,21.2-21.2,21.4-21.4-21.4,21.4-21.2Z"/>
  <path class="cls-1" d="M1232.2,202.5c9.9-4.1,16.8-9.1,20.8-14.8-14.4-.4-26-2.1-35-5.2-8.9-3.1-15.2-8.7-18.8-17-2.4-5.2-3.6-11.4-3.6-18.6,0-8.5,1.8-17,5.4-25.4s8.5-15.2,14.8-20.6c6.3-5.3,13.2-8,21-8,6.9,0,13.4,2.5,19.5,7.5s11.2,11.8,15.5,20.5c4.3,8.7,7.2,18.4,8.8,29.2h9.2l2,18.8-2,18.8h-10.2c-4,15.2-12.7,27.9-26,38.1s-30.2,17.1-50.5,20.9l-11.8-32.4c17.4-3.7,31.1-7.6,40.9-11.8Zm-.2-54c5.5,.9,12.8,1.4,22.2,1.7-1.9-6.4-4.4-11.8-7.5-16.2s-6.5-7.1-10.1-8c-1.2-.4-2.3-.6-3.2-.6-3.7,0-6.9,1.7-9.5,5s-3.9,6.7-3.9,10c0,1.5,.4,2.7,1.2,3.8,1.8,2,5.4,3.4,10.8,4.3Z"/>
  <path class="cls-1" d="M1287.2,150.2h3.4c15.2,0,27.2-.5,36-1.6s15.4-3.1,20-6.2c-1.5,.1-3.7,.2-6.8,.2-10,0-18.8-1.8-26.5-5.4-7.7-3.6-13.1-8.9-16.3-15.8-2.3-4.9-3.4-10.7-3.4-17.4,0-8,1.7-15.9,5.2-23.9,3.5-7.9,8.3-14.4,14.5-19.5s13-7.6,20.5-7.6c8,0,15.4,3.3,22.2,9.8,6.8,6.5,12.2,15.2,16.1,26.2,3.9,10.9,5.9,22.8,5.9,35.6,0,20-7.1,35.5-21.3,46.5-14.2,11.1-36.3,16.6-66.4,16.6h-3v-37.5h-.1ZM1328.7,0l21.2,21.2-21.2,21.4-21.4-21.4,21.4-21.2Zm2.4,106.7c6.1,1.3,12.8,1.9,20.2,1.6-2.3-7.3-5.3-13.2-9.1-17.8-3.8-4.5-7.7-6.8-11.7-6.8-3.6,0-6.7,1.5-9.2,4.6s-3.8,6.1-3.8,9.2c0,1.7,.4,3,1.2,3.8,2.2,2.2,6.3,4,12.4,5.4Z"/>
</svg>